<?xml version="1.0" encoding="UTF-8"?>
<svg id="Layer_1" xmlns="http://www.w3.org/2000/svg" version="1.1" viewBox="0 0 353.324 354.0113">
  <!-- Generator: Adobe Illustrator 30.1.0, SVG Export Plug-In . SVG Version: 2.1.1 Build 136)  -->
  <!-- Modified: Background panels removed for transparency -->
  <defs>
    <style>
      .st0 {
        fill: #8fb1cc;
      }

      .st1 {
        fill: #4f6d91;
      }

      .st2 {
        fill: #e17b4b;
      }
    </style>
  </defs>
  <path class="st0" d="M195.395,150.926V17.3c0-10.565-6.765-16.044-14.359-17.3h-6.918c-7.594,1.256-14.359,6.735-14.359,17.3v36.273c0,.033.0031.064.005.097,0,.02-.006.04-.005.061v97.195h35.636Z"/>
  <path class="st0" d="M112.272,54.546v96.38h35.619V53.854c-.333-11.823-9.288-17.067-18.048-16.908-8.747.104-17.571,5.587-17.571,17.6h0Z"/>
  <path class="st0" d="M242.9,78.838c0-.002-.001-.004-.001-.006,0-.008.001-.016.001-.024v-42.079c0-12.153-8.949-17.593-17.819-17.593s-17.818,5.44-17.818,17.593v114.197h35.637v-72.088h0Z"/>
  <path class="st0" d="M290.386,86.131c0-12.16-8.945-17.604-17.809-17.604s-17.808,5.444-17.808,17.605v64.794h2.98c6.305,0,11.416,5.111,11.416,11.415v29.035c0,6.305-5.111,11.416-11.416,11.416H105.486c-6.304,0-11.415-5.111-11.415-11.416v-29.035c0-4.45,2.616-8.204,6.332-10.087v-4.81c-.454-18.061-16.185-29.378-26.741-29.275-8.863.105-10.723,7.737-10.723,14.123v89.272c.001,12.709,3.27,25.291,9.454,36.385,4.975,8.925,11.836,19.264,18.473,29.262,1.088,1.639,2.141,3.235,3.205,4.844v-14.458c0-6.304,5.111-11.415,11.415-11.415h152.263c6.305,0,11.416,5.111,11.416,11.415v29.035c0,6.305-5.111,11.416-11.416,11.416H110.046c5.682,10.87,8.752,23.011,8.752,35.285v.654h142.061c.246-9.404,2.5-18.772,6.7-27.188l5.966-11.955c11.016-22.074,16.84-46.78,16.843-71.45l.018-157.263h0ZM269.165,249.004c0,6.305-5.111,11.416-11.416,11.416H105.486c-6.304,0-11.415-5.111-11.415-11.416v-29.035c0-6.304,5.111-11.415,11.415-11.415h152.263c6.305,0,11.416,5.111,11.416,11.415v29.035h0Z"/>
  <path class="st2" d="M125.902,234.487c0,4.035-3.271,7.306-7.306,7.306s-7.306-3.271-7.306-7.306,3.27-7.306,7.306-7.306,7.306,3.27,7.306,7.306h0Z"/>
  <path class="st2" d="M147.69,234.487c0,4.035-3.271,7.306-7.306,7.306s-7.306-3.271-7.306-7.306,3.271-7.306,7.306-7.306,7.306,3.27,7.306,7.306h0Z"/>
  <path class="st2" d="M169.479,234.487c0,4.035-3.27,7.306-7.306,7.306-4.034,0-7.306-3.271-7.306-7.306s3.272-7.306,7.306-7.306c4.036,0,7.306,3.27,7.306,7.306h0Z"/>
  <path class="st2" d="M251.945,234.487c0,4.035-3.27,7.306-7.306,7.306h-44.239c-4.034,0-7.305-3.271-7.305-7.306s3.271-7.306,7.305-7.306h44.239c4.036,0,7.306,3.27,7.306,7.306h0Z"/>
  <path class="st2" d="M125.902,292.115c0,4.035-3.271,7.306-7.306,7.306s-7.306-3.271-7.306-7.306,3.27-7.306,7.306-7.306,7.306,3.271,7.306,7.306h0Z"/>
  <path class="st2" d="M147.69,292.115c0,4.035-3.271,7.306-7.306,7.306s-7.306-3.271-7.306-7.306,3.271-7.306,7.306-7.306,7.306,3.271,7.306,7.306h0Z"/>
  <path class="st2" d="M169.479,292.115c0,4.035-3.27,7.306-7.306,7.306-4.034,0-7.306-3.271-7.306-7.306s3.272-7.306,7.306-7.306c4.036,0,7.306,3.271,7.306,7.306h0Z"/>
  <path class="st2" d="M251.945,292.115c0,4.035-3.27,7.306-7.306,7.306h-44.239c-4.034,0-7.305-3.271-7.305-7.306s3.271-7.306,7.305-7.306h44.239c4.036,0,7.306,3.271,7.306,7.306h0Z"/>
  <path class="st2" d="M125.902,176.859c0,4.034-3.271,7.306-7.306,7.306s-7.306-3.272-7.306-7.306,3.27-7.306,7.306-7.306,7.306,3.27,7.306,7.306h0Z"/>
  <path class="st2" d="M147.69,176.859c0,4.034-3.271,7.306-7.306,7.306s-7.306-3.272-7.306-7.306,3.271-7.306,7.306-7.306,7.306,3.27,7.306,7.306h0Z"/>
  <path class="st2" d="M169.479,176.859c0,4.034-3.27,7.306-7.306,7.306-4.034,0-7.306-3.272-7.306-7.306s3.272-7.306,7.306-7.306c4.036,0,7.306,3.27,7.306,7.306h0Z"/>
  <path class="st2" d="M251.945,176.859c0,4.034-3.27,7.306-7.306,7.306h-44.239c-4.034,0-7.305-3.272-7.305-7.306s3.271-7.306,7.305-7.306h44.239c4.036,0,7.306,3.27,7.306,7.306h0Z"/>
</svg>
